<?xml version="1.0" encoding="UTF-8"?>
<svg width="1632px" height="598px" viewBox="0 0 1632 598" version="1.1" xmlns="http://www.w3.org/2000/svg" xmlns:xlink="http://www.w3.org/1999/xlink">
    <title>Group 10 Copy</title>
    <defs>
        <linearGradient x1="50%" y1="0%" x2="50%" y2="145.193916%" id="linearGradient-1">
            <stop stop-color="#F79420" offset="0%"></stop>
            <stop stop-color="#FCC643" offset="100%"></stop>
        </linearGradient>
        <linearGradient x1="50%" y1="0%" x2="50%" y2="145.193916%" id="linearGradient-2">
            <stop stop-color="#F79420" offset="0%"></stop>
            <stop stop-color="#FCC643" offset="100%"></stop>
        </linearGradient>
        <linearGradient x1="50%" y1="0%" x2="50%" y2="145.193916%" id="linearGradient-3">
            <stop stop-color="#F79420" offset="0%"></stop>
            <stop stop-color="#FCC643" offset="100%"></stop>
        </linearGradient>
        <linearGradient x1="50%" y1="0%" x2="50%" y2="145.193916%" id="linearGradient-4">
            <stop stop-color="#F79420" offset="0%"></stop>
            <stop stop-color="#FCC643" offset="100%"></stop>
        </linearGradient>
        <linearGradient x1="50%" y1="0%" x2="50%" y2="145.193916%" id="linearGradient-5">
            <stop stop-color="#F79420" offset="0%"></stop>
            <stop stop-color="#FCC643" offset="100%"></stop>
        </linearGradient>
        <linearGradient x1="50%" y1="0%" x2="50%" y2="145.193916%" id="linearGradient-6">
            <stop stop-color="#F79420" offset="0%"></stop>
            <stop stop-color="#FCC643" offset="100%"></stop>
        </linearGradient>
        <linearGradient x1="50%" y1="0%" x2="50%" y2="145.193916%" id="linearGradient-7">
            <stop stop-color="#F79420" offset="0%"></stop>
            <stop stop-color="#FCC643" offset="100%"></stop>
        </linearGradient>
        <linearGradient x1="50%" y1="91.5929533%" x2="50%" y2="12.5524373%" id="linearGradient-8">
            <stop stop-color="#F7AB20" offset="0%"></stop>
            <stop stop-color="#F79420" offset="100%"></stop>
        </linearGradient>
        <linearGradient x1="157.309289%" y1="50%" x2="-18.7876617%" y2="50%" id="linearGradient-9">
            <stop stop-color="#F8B53B" offset="0%"></stop>
            <stop stop-color="#F79420" offset="100%"></stop>
        </linearGradient>
    </defs>
    <g id="QR-CODES-Final" stroke="none" stroke-width="1" fill="none" fill-rule="evenodd">
        <g id="Group-10-Copy">
            <g id="Logo-Version-2---Colour-_-White" fill-rule="nonzero">
                <path d="M466.49,282.05 C466.332887,275.357929 467.772648,268.724745 470.69,262.7 C473.45155,257.247628 477.336842,252.442136 482.09,248.6 C487.01953,244.624919 492.534877,241.43715 498.44,239.15 C504.604976,236.72833 510.960064,234.821804 517.44,233.45 C523.969178,232.060186 530.583903,231.108066 537.24,230.6 C543.84,230.1 550.04,229.85 555.84,229.85 L562.14,229.85 L562.14,226.25 C562.14,216.25 559.34,209.25 553.74,205.25 C548.14,201.25 541.44,199.25 533.64,199.25 C527.524168,199.204615 521.442669,200.167519 515.64,202.1 C510.877218,203.641191 506.259387,205.59875 501.84,207.95 C494.04,211.35 488.44,209.65 485.04,202.85 L482.04,197.15 C478.24,189.75 479.84,184.15 486.84,180.35 C493.381757,177.114243 500.149497,174.357016 507.09,172.1 C515.59,169.2 525.54,167.75 536.94,167.75 C556.94,167.75 572.49,173.05 583.59,183.65 C594.69,194.25 600.24,209.25 600.24,228.65 L600.24,311.75 C600.24,320.15 596.04,324.35 587.64,324.35 L577.44,324.35 C569.24,324.35 565.14,320.15 565.14,311.75 L565.14,305.75 C565.080635,304.144011 565.18113,302.536099 565.44,300.95 C565.406213,300.335228 565.508653,299.720583 565.74,299.15 L565.14,299.15 C562.149169,304.538536 558.298502,309.402536 553.74,313.55 C549.205248,317.505979 544.160247,320.83568 538.74,323.45 C532.74,326.45 525.54,327.95 517.14,327.95 C510.447852,328.002103 503.797998,326.885333 497.49,324.65 C491.625222,322.570913 486.199261,319.417073 481.49,315.35 C476.873247,311.356432 473.128749,306.454544 470.49,300.95 C467.740404,295.034938 466.372553,288.571844 466.49,282.05 L466.49,282.05 Z M504.29,278.75 C504.306979,283.992991 506.412209,289.013156 510.14,292.7 C514.04,296.8 519.79,298.85 527.39,298.85 C532.469887,298.929979 537.483489,297.6895 541.94,295.25 C546.199833,292.884825 549.927185,289.668069 552.89,285.8 C555.915914,281.850571 558.29554,277.445732 559.94,272.75 C561.589836,268.230344 562.452338,263.461219 562.49,258.65 L562.49,253 L556.19,253 C551.39,253 545.99,253.3 539.99,253.9 C534.204452,254.446879 528.5006,255.654754 522.99,257.5 C518.027595,259.102419 513.472551,261.763792 509.64,265.3 C506.073333,268.666667 504.29,273.15 504.29,278.75 Z" id="Shape" fill="url(#linearGradient-1)"></path>
                <path d="M635.69,184 C635.69,175.6 639.89,171.4 648.29,171.4 L657.89,171.4 C661.89,171.4 664.94,172.4 667.04,174.4 C669.112806,176.335489 670.259154,179.064888 670.19,181.9 L670.19,188.8 C670.203292,189.602702 670.153136,190.4052 670.04,191.2 C669.940424,191.794834 669.890253,192.396889 669.89,193 L669.89,194.8 L670.49,194.8 C673.379624,189.690692 677.135551,185.122673 681.59,181.3 C686.233515,177.504729 691.382979,174.374663 696.89,172 C703.09,169.2 710.69,167.8 719.69,167.8 C729.405501,167.655869 739.033527,169.653172 747.89,173.65 C756.187345,177.471083 763.518444,183.110391 769.34,190.15 C775.457954,197.639826 780.093841,206.226059 783,215.45 C786.302619,225.92837 787.922738,236.86417 787.8,247.85 C787.959231,259.069953 786.183229,270.233393 782.55,280.85 C779.352447,290.13385 774.357353,298.696867 767.85,306.05 C761.641789,312.983467 754.020969,318.507283 745.5,322.25 C736.704233,326.09059 727.197332,328.032861 717.6,327.95 C709.6,327.95 702.8,326.75 697.2,324.35 C692.302065,322.376685 687.746071,319.643089 683.7,316.25 C679.625151,312.993996 676.170005,309.03074 673.5,304.55 L672.9,304.55 C672.916413,305.755504 673.016655,306.958407 673.2,308.15 C673.420856,309.541499 673.571049,310.943297 673.65,312.35 C673.75,313.95 673.8,315.75 673.8,317.75 L673.8,371.75 C673.8,380.15 669.6,384.35 661.2,384.35 L648.3,384.35 C639.9,384.35 635.7,380.15 635.7,371.75 L635.69,184 Z M672.589754,248.8 C672.573573,254.683614 673.381423,260.540524 674.99,266.2 C676.486607,271.585487 678.924169,276.663741 682.19,281.2 C685.367948,285.580392 689.463133,289.214869 694.19,291.85 C699.243447,294.61389 704.931153,296.009963 710.69,295.9 C715.807629,295.917453 720.870166,294.843581 725.54,292.75 C730.259448,290.635593 734.457996,287.512283 737.84,283.6 C741.541165,279.241642 744.34484,274.195027 746.09,268.75 C748.187308,262.208696 749.200683,255.368414 749.09,248.5 C749.09,233.9 745.59,222.25 738.59,213.55 C732.095322,205.090995 721.95157,200.242058 711.29,200.5 C706.348759,200.488376 701.454298,201.457072 696.89,203.35 C692.201373,205.312482 688.002065,208.282724 684.59,212.05 C680.715375,216.417382 677.756927,221.518153 675.89,227.05 C673.69,233.116667 672.589754,240.35 672.589754,248.75 L672.589754,248.8 Z" id="Shape" fill="url(#linearGradient-2)"></path>
                <path d="M816.59,184 C816.59,175.6 820.79,171.4 829.19,171.4 L838.79,171.4 C842.79,171.4 845.84,172.4 847.94,174.4 C850.012806,176.335489 851.159154,179.064888 851.09,181.9 L851.09,188.8 C851.103292,189.602702 851.053136,190.4052 850.94,191.2 C850.840424,191.794834 850.790253,192.396889 850.79,193 L850.79,194.8 L851.39,194.8 C854.279624,189.690692 858.035551,185.122673 862.49,181.3 C867.133515,177.504729 872.282979,174.374663 877.79,172 C883.99,169.2 891.59,167.8 900.59,167.8 C910.305501,167.655869 919.933527,169.653172 928.79,173.65 C937.087345,177.471083 944.418444,183.110391 950.24,190.15 C956.359947,197.655558 960.99267,206.259186 963.89,215.5 C967.192619,225.97837 968.812738,236.91417 968.69,247.9 C968.849231,259.119953 967.073229,270.283393 963.44,280.9 C960.242447,290.18385 955.247353,298.746867 948.74,306.1 C942.531789,313.033467 934.910969,318.557283 926.39,322.3 C917.594233,326.14059 908.087332,328.082861 898.49,328 C890.49,328 883.69,326.8 878.09,324.4 C873.192065,322.426685 868.636071,319.693089 864.59,316.3 C860.515151,313.043996 857.060005,309.08074 854.39,304.6 L853.79,304.6 C853.806413,305.805504 853.906655,307.008407 854.09,308.2 C854.310856,309.591499 854.461049,310.993297 854.54,312.4 C854.64,314 854.69,315.8 854.69,317.8 L854.69,371.8 C854.69,380.2 850.49,384.4 842.09,384.4 L829.19,384.4 C820.79,384.4 816.59,380.2 816.59,371.8 L816.59,184 Z M853.489754,248.8 C853.473573,254.683614 854.281423,260.540524 855.89,266.2 C857.386607,271.585487 859.824169,276.663741 863.09,281.2 C866.267948,285.580392 870.363133,289.214869 875.09,291.85 C880.143447,294.61389 885.831153,296.009963 891.59,295.9 C896.707629,295.917453 901.770166,294.843581 906.44,292.75 C911.159448,290.635593 915.357996,287.512283 918.74,283.6 C922.450463,279.227666 925.257851,274.163493 927,268.7 C929.097308,262.158696 930.110683,255.318414 930,248.45 C930,233.85 926.5,222.2 919.5,213.5 C913.005322,205.040995 902.86157,200.192058 892.2,200.45 C887.258759,200.438376 882.364298,201.407072 877.8,203.3 C873.111373,205.262482 868.912065,208.232724 865.5,212 C861.625375,216.367382 858.666927,221.468153 856.8,227 C854.593333,233.1 853.489754,240.35 853.489754,248.75 L853.489754,248.8 Z" id="Shape" fill="url(#linearGradient-3)"></path>
                <path d="M988.19,247.85 C988.058009,236.789459 989.991094,225.801402 993.89,215.45 C997.452619,206.027289 1002.85796,197.409345 1009.79,190.1 C1016.7217,182.911246 1025.10875,177.285782 1034.39,173.6 C1044.40985,169.62076 1055.10954,167.633675 1065.89,167.75 C1076.69,167.75 1086.34,169.6 1094.84,173.3 C1102.96292,176.730785 1110.23395,181.902431 1116.14,188.45 C1122.00747,195.179948 1126.432,203.041997 1129.14,211.55 C1132.20171,220.943323 1133.72139,230.770631 1133.64,240.65 C1133.55214,247.85517 1127.64529,253.627779 1120.44,253.55 L1027.14,253.55 C1027.5816,259.920371 1029.28099,266.140123 1032.14,271.85 C1037.12297,281.804577 1045.86836,289.362313 1056.44,292.85 C1061.80354,294.660364 1067.42921,295.572635 1073.09,295.55 C1079.58948,295.6381 1086.04886,294.519152 1092.14,292.25 C1096.97469,290.463672 1101.64271,288.255145 1106.09,285.65 C1109.89,283.85 1113.14,283.25 1115.84,283.85 C1118.54,284.45 1120.89,286.45 1122.89,289.85 L1126.49,295.85 C1130.29,303.05 1128.89,308.65 1122.29,312.65 C1115.71216,316.626534 1108.78307,319.990657 1101.59,322.7 C1092.79,326.2 1082.39,327.95 1070.39,327.95 C1058.67248,328.119093 1047.04101,325.925439 1036.19,321.5 C1026.43586,317.517876 1017.59085,311.598524 1010.19,304.1 C1003.08089,296.785786 997.520019,288.112865 993.84,278.6 C990.038332,268.796892 988.121435,258.364224 988.19,247.85 L988.19,247.85 Z M1095.89,230.45 C1095.49,219.65 1092.44,211.3 1086.74,205.4 C1081.04,199.5 1073.79333,196.55 1065,196.55 C1055.2,196.55 1047.05,199.65 1040.55,205.85 C1034.05,212.05 1029.9,220.25 1028.1,230.45 L1095.89,230.45 Z" id="Shape" fill="url(#linearGradient-4)"></path>
                <path d="M1168.79,203.75 L1160.69,203.75 C1152.49,203.75 1148.39,199.55 1148.39,191.15 L1148.39,186.05 C1148.39,177.65 1152.59,173.45 1160.99,173.45 L1169.69,173.45 L1169.69,142.25 C1169.69,133.85 1173.89,129.65 1182.29,129.65 L1194.29,129.65 C1202.69,129.65 1206.89,133.85 1206.89,142.25 L1206.89,173.45 L1229.09,173.45 C1237.49,173.45 1241.69,177.65 1241.69,186.05 L1241.69,191.15 C1241.69,199.55 1237.59,203.75 1229.39,203.75 L1206.89,203.75 L1206.89,263.15 C1206.89,268.95 1207.68,273.6 1209.29,277.15 C1210.66993,280.344798 1212.71544,283.20851 1215.29,285.55 C1217.60691,287.601007 1220.33407,289.135036 1223.29,290.05 C1225.96951,290.907316 1228.73687,291.460789 1231.54,291.7 C1236.14,292.1 1239.38,293.2 1241.29,295 C1243.2,296.8 1244.14,299.8 1244.14,304 L1244.14,313.3 C1244.14,317.9 1242.84,321.15 1240.24,323.05 C1237.64,324.95 1233.74,325.9 1228.54,325.9 C1221.48509,325.863795 1214.46892,324.854274 1207.69,322.9 C1200.73,320.970189 1194.20985,317.710112 1188.49,313.3 C1182.58468,308.650715 1177.77149,302.762243 1174.39,296.05 C1170.68333,288.95 1168.83333,280.2 1168.84,269.8 L1168.79,203.75 Z" id="Path" fill="url(#linearGradient-5)"></path>
                <path d="M1281.89,145.25 C1273.67667,145.25 1269.57667,141.15 1269.58997,132.95 L1269.58997,123.95 C1269.58997,115.55 1273.69,111.35 1281.89,111.35 L1295.09,111.35 C1303.49,111.35 1307.69,115.55 1307.69,123.95 L1307.69,132.95 C1307.69,141.15 1303.49,145.25 1295.09,145.25 L1281.89,145.25 Z M1269.58997,183.95 C1269.58997,175.55 1273.69,171.35 1281.89,171.35 L1295.09,171.35 C1303.29,171.35 1307.39,175.55 1307.39,183.95 L1307.39,311.75 C1307.39,320.15 1303.29,324.35 1295.09,324.35 L1281.89,324.35 C1273.67667,324.35 1269.57667,320.15 1269.58997,311.75 L1269.58997,183.95 Z" id="Shape" fill="url(#linearGradient-6)"></path>
                <path d="M1334.69,311.15 C1334.59013,308.54631 1334.9977,305.948054 1335.89,303.5 C1336.96852,301.15699 1338.38345,298.984058 1340.09,297.05 L1403.39,217.85 C1405.19,215.65 1406.84,213.7 1408.34,212 C1409.84,210.3 1411.19,208.85 1412.39,207.65 L1416.29,203.75 L1416.29,203.15 C1415.20534,203.377539 1414.09791,203.478215 1412.99,203.45 C1411.50047,203.670449 1409.99562,203.770772 1408.49,203.75 L1350.29,203.75 C1341.89,203.75 1337.69,199.55 1337.69,191.15 L1337.69,184 C1337.69,175.6 1341.89,171.4 1350.29,171.4 L1455.29,171.4 C1463.69,171.4 1467.89,174.8 1467.89,181.6 L1467.89,184.6 C1467.98482,187.203391 1467.5774,189.800682 1466.69,192.25 C1465.60401,194.588876 1464.18975,196.760776 1462.49,198.7 L1399.19,278.2 C1397.39,280.4 1395.69,282.35 1394.09,284.05 C1392.48,285.75 1391.09,287.2 1389.89,288.4 L1385.99,292.3 L1385.99,292.9 C1387.1955,292.883587 1388.39841,292.783345 1389.59,292.6 C1391.0312,292.374561 1392.48317,292.224357 1393.94,292.15 C1395.63,292.05 1397.79,292 1400.39,292 L1457.39,292 C1465.79,292 1469.99,296.2 1469.99,304.6 L1469.99,311.8 C1469.99,320.2 1465.79,324.4 1457.39,324.4 L1347.29,324.4 C1338.89,324.4 1334.69,321 1334.69,314.2 L1334.69,311.15 Z" id="Path" fill="url(#linearGradient-7)"></path>
                <path d="M1486.19,247.85 C1486.05801,236.789459 1487.99109,225.801402 1491.89,215.45 C1495.45262,206.027289 1500.85796,197.409345 1507.79,190.1 C1514.7217,182.911246 1523.10875,177.285782 1532.39,173.6 C1542.40985,169.62076 1553.10954,167.633675 1563.89,167.75 C1574.69,167.75 1584.34,169.6 1592.84,173.3 C1600.96292,176.730785 1608.23395,181.902431 1614.14,188.45 C1620.00747,195.179948 1624.432,203.041997 1627.14,211.55 C1630.20171,220.943323 1631.72139,230.770631 1631.64,240.65 C1631.55214,247.85517 1625.64529,253.627779 1618.44,253.55 L1525.14,253.55 C1525.5816,259.920371 1527.28099,266.140123 1530.14,271.85 C1535.12297,281.804577 1543.86836,289.362313 1554.44,292.85 C1559.80354,294.660364 1565.42921,295.572635 1571.09,295.55 C1577.58948,295.6381 1584.04886,294.519152 1590.14,292.25 C1594.97469,290.463672 1599.64271,288.255145 1604.09,285.65 C1607.89,283.85 1611.14,283.25 1613.84,283.85 C1616.54,284.45 1618.89,286.45 1620.89,289.85 L1624.49,295.85 C1628.29,303.05 1626.89,308.65 1620.29,312.65 C1613.71216,316.626534 1606.78307,319.990657 1599.59,322.7 C1590.79,326.2 1580.39,327.95 1568.39,327.95 C1556.67248,328.119093 1545.04101,325.925439 1534.19,321.5 C1524.43586,317.517876 1515.59085,311.598524 1508.19,304.1 C1501.08089,296.785786 1495.52002,288.112865 1491.84,278.6 C1488.03833,268.796892 1486.12144,258.364224 1486.19,247.85 L1486.19,247.85 Z M1593.89,230.45 C1593.49,219.65 1590.44,211.3 1584.74,205.4 C1579.04,199.5 1571.79333,196.55 1563,196.55 C1553.2,196.55 1545.05,199.65 1538.55,205.85 C1532.05,212.05 1527.9,220.25 1526.1,230.45 L1593.89,230.45 Z" id="Shape" fill="url(#linearGradient-4)"></path>
                <rect id="Rectangle" fill="url(#linearGradient-8)" x="0" y="0" width="419" height="419" rx="59.17"></rect>
                <path d="M209.51,243.37 C117.57,243.37 82.9,241.86 42.15,282.06 C-7.37,330.92 32.82,401.55 92.9,357.14 C146.59,317.45 222.63,140.59 226.38,131.79 C226.499323,131.489869 226.713551,131.23701 226.99,131.07 C229.9,129.3 237.77,133.5 241.17,130.44 C243.77,128.1 276.85,64.62 279.34,59.49 C279.535437,59.1746219 279.441993,58.760797 279.13,58.56 L275.08,56.36 C274.747978,56.2130823 274.358902,56.3486032 274.19,56.67 C262.81,76.23 246.86,106.33 245.19,109.25 C245.037821,109.611547 244.62712,109.788192 244.26,109.65 L242.72,108.81 C242.4,108.64 242.41,108.23 242.54,107.81 C243.54,104.68 260.08,74.35 270.74,54.81 C270.926922,54.4942081 270.829562,54.0870675 270.52,53.89 L265.83,51.35 C265.495585,51.1991101 265.101766,51.3407079 264.94,51.67 C253.49,72.03 238.05,101.48 236.05,104.28 C235.8,104.63 235.44,104.85 235.12,104.67 L233,103.53 C232.69,103.36 232.66,102.93 232.82,102.53 C234.07,99.4 250.71,69.67 261.1,49.58 C261.285915,49.2672484 261.188253,48.8632825 260.88,48.67 L256.19,46.13 C255.858217,45.9776638 255.465348,46.114506 255.3,46.44 C244.14,66.72 228.23,96.44 226.3,99.02 C226.05,99.36 225.69,99.58 225.37,99.41 L223.83,98.58 C223.504919,98.3530716 223.424453,97.9060415 223.65,97.58 C225.37,94.71 241.65,64.77 251.86,44.58 C252.045915,44.2672484 251.948253,43.8632825 251.64,43.67 L247.58,41.47 C247.242929,41.3205002 246.848125,41.4668884 246.69,41.8 C243.74,46.69 208.62,109.7 208.07,113.16 C207.34,117.85 217.07,123.01 215.14,126.24 C175.66,191.07 130.27,286.3 82.4,336.15 C57.85,361.71 25.98,337.15 51.78,303.02 C92.04,249.75 136.52,258.56 209.06,258.56 C292.53,258.56 313.06,249.33 359.63,291.7 C397.47,326.12 371,368 337.84,335.33 C293.08,291.13 209.5,136.94 202.84,125 C179.79,83.56 151.35,37.75 151.35,37.75 C151.35,37.75 133.14,94.16 191.69,135.29 C191.753143,135.335145 191.801787,135.397687 191.83,135.47 C193.83,140.73 274.75,317.63 327.76,357.14 C395.28,407.47 438.9,313.14 354.6,262.35 C313.86,237.81 285.41,243.37 209.51,243.37 Z" id="Path" fill="#FFFFFF"></path>
            </g>
        </g>
    </g>
</svg>